<svg width="148" height="28" viewBox="0 0 148 28" fill="none" xmlns="http://www.w3.org/2000/svg">
  <g id="logo_frrontegg copy">
    <mask id="mask0_138_10" style="mask-type:alpha" maskUnits="userSpaceOnUse" x="0" y="0" width="148" height="28">
      <rect id="Rectangle_1" width="148" height="28" fill="white"/>
    </mask>
    <g mask="url(#mask0_138_10)">
      <g id="Group_1">
        <path id="Path_1"
              d="M33.0319 22.0909V13.4669H31.3975V10.9997H33.0319V9.44247C32.9578 8.10878 33.3626 6.79236 34.1738 5.72924C34.9256 4.82284 36.0587 4.31821 37.2375 4.36478C38.3134 4.37689 39.3728 4.63051 40.3369 5.10678L39.6887 7.52663C39.4173 7.38728 39.131 7.2789 38.8353 7.20355C38.5419 7.12112 38.2391 7.07696 37.9343 7.07216C36.813 7.07216 36.2523 7.82278 36.2523 9.32401V11.0008H39.3225V13.468H36.2523V22.092L33.0319 22.0909Z"
              fill="white"/>
        <path id="Path_2"
              d="M51.2707 12.3166C50.3672 12.3164 49.4741 12.5084 48.651 12.8798C47.9208 13.2008 47.332 13.7747 46.9938 14.4952V22.0897H43.7734V9.53813H46.7291V12.2207C47.1237 11.4044 47.7036 10.6909 48.423 10.1369C49.0465 9.63568 49.8205 9.35736 50.6214 9.34644C50.7986 9.34644 50.9304 9.34644 51.0179 9.35828C51.1027 9.3659 51.1871 9.37776 51.2707 9.39382V12.3166Z"
              fill="white"/>
        <path id="Path_3" fill-rule="evenodd" clip-rule="evenodd"
              d="M60.9749 22.33C60.0283 22.3443 59.0889 22.1647 58.2148 21.8023C57.4308 21.4747 56.7229 20.9897 56.1352 20.3775C55.5672 19.7795 55.1224 19.0763 54.8259 18.3077C54.2192 16.7118 54.2192 14.9497 54.8259 13.3538C55.1221 12.5841 55.5669 11.8797 56.1352 11.2807C56.7235 10.6692 57.4312 10.1843 58.2148 9.85596C59.0896 9.49362 60.0298 9.31437 60.9771 9.32935C61.9212 9.31339 62.8585 9.4927 63.7297 9.85596C65.2861 10.5146 66.5054 11.778 67.1056 13.3538C67.7138 14.9494 67.7138 16.712 67.1056 18.3077C66.811 19.075 66.3709 19.7785 65.8092 20.3797C65.2258 20.9934 64.5195 21.478 63.7361 21.8023C62.8617 22.1649 61.9218 22.3445 60.9749 22.33ZM57.9404 17.3589C57.7663 16.871 57.6807 16.3561 57.6876 15.8383V15.8372C57.6829 15.3238 57.7684 14.8135 57.9404 14.3295C58.0945 13.8896 58.331 13.4829 58.6372 13.1309C58.9283 12.7998 59.2837 12.5309 59.6819 12.3404C60.0865 12.1479 60.5298 12.0496 60.9782 12.0529C61.4253 12.0498 61.8677 12.1439 62.2746 12.3286C62.6737 12.5122 63.0296 12.7775 63.3192 13.1072C63.6257 13.4586 63.8622 13.865 64.016 14.3047C64.1878 14.7887 64.2734 15.299 64.2688 15.8124C64.275 16.334 64.1895 16.8527 64.016 17.3449C63.862 17.7848 63.6256 18.1916 63.3192 18.5435C63.0294 18.8727 62.6735 19.1376 62.2746 19.321C61.4494 19.6876 60.507 19.6876 59.6819 19.321C59.2829 19.1376 58.927 18.8727 58.6372 18.5435C58.3332 18.1952 58.0969 17.7935 57.9404 17.3589Z"
              fill="white"/>
        <path id="Path_4"
              d="M83.7846 22.0908H80.5642V15.0477C80.6254 14.276 80.4401 13.5048 80.0349 12.8444C79.6919 12.3855 79.1435 12.1254 78.57 12.1497C78.2326 12.1527 77.8986 12.2177 77.5848 12.3414C77.2426 12.4716 76.9224 12.6532 76.6352 12.8799C76.3315 13.1186 76.0609 13.3963 75.8304 13.7059C75.5913 14.0224 75.4119 14.3797 75.3011 14.7602V22.0908H72.0818V9.5382H74.9899V11.8622C75.4629 11.0545 76.165 10.4044 77.0079 9.99374C77.9332 9.5364 78.9548 9.30636 79.9874 9.32281C80.6552 9.29529 81.3185 9.44388 81.9103 9.75358C82.3862 10.0214 82.7836 10.4086 83.063 10.8768C83.3449 11.3657 83.5363 11.9012 83.6279 12.4577C83.7322 13.0509 83.7846 13.6519 83.7846 14.254V22.0908Z"
              fill="white"/>
        <path id="Path_5"
              d="M96.4716 21.4436C95.951 21.6668 95.4175 21.8585 94.8738 22.0176C94.2311 22.2116 93.563 22.3089 92.8915 22.3063C92.4651 22.3087 92.0405 22.2522 91.6297 22.1383C91.251 22.0338 90.899 21.8502 90.5969 21.5998C90.2893 21.3392 90.0464 21.0112 89.8872 20.6413C89.6987 20.1901 89.6085 19.7041 89.6225 19.2155V12.0001H87.988V9.53826H89.6225V5.46533H92.8429V9.53826H95.5101V12.0055H92.8429V18.1375C92.8048 18.4923 92.9389 18.844 93.2037 19.0841C93.4525 19.2701 93.757 19.3668 94.0679 19.3587C94.4038 19.3592 94.7373 19.3028 95.0542 19.1918C95.3729 19.0841 95.6311 18.9839 95.8223 18.9043L96.4716 21.4436Z"
              fill="white"/>
        <path id="Path_6" fill-rule="evenodd" clip-rule="evenodd"
              d="M103.607 21.8151C104.476 22.1681 105.408 22.3431 106.347 22.3299V22.3309C107.623 22.3651 108.882 22.046 109.987 21.4091C110.945 20.8579 111.718 20.0366 112.209 19.0485L109.447 18.2828C109.216 18.8176 108.803 19.2542 108.281 19.5159C107.726 19.8237 107.101 19.9846 106.466 19.9833C106.056 19.9847 105.649 19.9118 105.265 19.7679C104.488 19.4794 103.852 18.9051 103.487 18.1633C103.286 17.7501 103.164 17.3036 103.126 16.8462H112.857C112.893 16.6888 112.913 16.5283 112.918 16.3669C112.929 16.1753 112.929 15.976 112.929 15.7682C112.932 14.9338 112.781 14.106 112.484 13.3257C112.198 12.5577 111.757 11.8563 111.188 11.2645C110.601 10.6609 109.898 10.1805 109.121 9.85156C108.251 9.48838 107.314 9.30907 106.37 9.32494C105.419 9.31064 104.474 9.48982 103.595 9.85156C102.804 10.1799 102.089 10.6646 101.491 11.2763C100.915 11.8757 100.466 12.5848 100.171 13.3613C99.8636 14.168 99.7087 15.0246 99.7143 15.8877C99.7105 16.7325 99.8696 17.5701 100.183 18.3549C100.486 19.1232 100.939 19.8236 101.516 20.4151C102.111 21.0172 102.822 21.4934 103.607 21.8151ZM108.568 12.4997C109.197 13.0904 109.572 13.901 109.614 14.7613L103.078 14.7634C103.104 14.3234 103.214 13.8923 103.402 13.4937C103.576 13.1257 103.816 12.7928 104.111 12.5116C104.4 12.2392 104.739 12.0236 105.108 11.8762C105.494 11.7233 105.907 11.6462 106.322 11.6489C107.154 11.6301 107.959 11.9354 108.568 12.4997Z"
              fill="white"/>
        <path id="Path_7" fill-rule="evenodd" clip-rule="evenodd"
              d="M119.936 21.6591C120.653 21.9993 121.437 22.1713 122.231 22.162C123.076 22.1663 123.91 21.9648 124.659 21.5751C125.393 21.2007 126.003 20.6224 126.414 19.9101V21.4857C126.426 22.0284 126.323 22.5675 126.111 23.0677C125.928 23.4927 125.648 23.8694 125.293 24.1683C124.942 24.4609 124.532 24.6773 124.092 24.8037C123.629 24.9406 123.147 25.0092 122.664 25.0072C121.855 25.0125 121.055 24.8408 120.32 24.5043C119.616 24.1872 118.995 23.7117 118.507 23.1151L116.753 24.8155C117.404 25.6293 118.229 26.2881 119.168 26.7443C120.267 27.232 121.462 27.4651 122.664 27.426C123.608 27.4354 124.548 27.2984 125.45 27.02C126.255 26.7717 127.006 26.3734 127.663 25.8461C128.282 25.3419 128.78 24.7052 129.12 23.9831C129.474 23.2008 129.65 22.3502 129.635 21.4921V9.5383H126.826V11.7385C126.372 11.0173 125.751 10.4148 125.016 9.98091C124.228 9.52912 123.331 9.30151 122.423 9.32291C120.809 9.29818 119.267 9.99177 118.218 11.2151C117.695 11.8234 117.288 12.521 117.015 13.2741C116.722 14.0886 116.576 14.9483 116.583 15.8135C116.578 16.6455 116.717 17.4721 116.994 18.2571C117.249 18.9971 117.64 19.6836 118.146 20.2817C118.638 20.8623 119.248 21.3318 119.936 21.6591ZM124.348 19.4309C124.023 19.5434 123.682 19.6002 123.339 19.5989V19.5978C122.862 19.6023 122.391 19.5042 121.956 19.3103C121.538 19.1234 121.162 18.8545 120.851 18.5198C120.534 18.1781 120.286 17.7798 120.118 17.346C119.938 16.888 119.848 16.4 119.852 15.9083C119.851 15.4202 119.929 14.9351 120.083 14.4717C120.226 14.0238 120.45 13.6056 120.744 13.2375C121.028 12.8819 121.384 12.5887 121.787 12.376C122.207 12.158 122.673 12.047 123.146 12.0529C123.843 12.0614 124.518 12.297 125.068 12.7238C125.678 13.1738 126.146 13.7891 126.415 14.4964V17.4903C126.297 17.7852 126.135 18.0602 125.932 18.3055C125.726 18.5589 125.488 18.7844 125.224 18.9764C124.955 19.1697 124.66 19.3228 124.348 19.4309Z"
              fill="white"/>
        <path id="Path_8" fill-rule="evenodd" clip-rule="evenodd"
              d="M137.549 21.6591C138.265 21.9992 139.049 22.1712 139.842 22.162C140.686 22.1661 141.519 21.9646 142.267 21.5751C143.001 21.2007 143.611 20.6225 144.022 19.9102V21.4911C144.034 22.0337 143.931 22.5728 143.72 23.0731C143.537 23.4981 143.257 23.8748 142.902 24.1737C142.551 24.4663 142.142 24.6827 141.701 24.8091C141.237 24.9459 140.756 25.0145 140.272 25.0126C139.463 25.0178 138.664 24.8461 137.929 24.5097C137.225 24.1926 136.604 23.7171 136.115 23.1205L134.364 24.8155C135.016 25.629 135.841 26.2879 136.779 26.7443C137.878 27.2319 139.073 27.465 140.275 27.426C141.22 27.4354 142.16 27.2985 143.062 27.02C143.867 26.7719 144.618 26.3736 145.274 25.8462C145.892 25.3417 146.388 24.7049 146.726 23.9831C147.08 23.2008 147.256 22.3503 147.242 21.4922V9.53831H144.433V11.7385C143.98 11.0178 143.361 10.4153 142.627 9.98093C141.84 9.52903 140.943 9.30142 140.034 9.32293C138.42 9.29836 136.879 9.99196 135.83 11.2151C135.307 11.8232 134.9 12.5209 134.627 13.2742C134.334 14.0886 134.188 14.9483 134.195 15.8135C134.19 16.6455 134.329 17.4721 134.605 18.2571C134.861 18.9968 135.252 19.6831 135.757 20.2817C136.25 20.8623 136.86 21.3318 137.549 21.6591ZM141.955 19.4309C141.63 19.5435 141.289 19.6004 140.945 19.5989V19.5979C140.469 19.6023 139.998 19.5042 139.563 19.3103C139.145 19.1234 138.769 18.8546 138.457 18.5199C138.141 18.1781 137.893 17.7798 137.726 17.346C137.546 16.8881 137.456 16.4001 137.46 15.9083C137.459 15.4203 137.536 14.9354 137.689 14.4717C137.833 14.024 138.057 13.6059 138.35 13.2375C138.635 12.8819 138.991 12.5887 139.395 12.376C139.814 12.1581 140.28 12.0471 140.753 12.0529C141.45 12.0614 142.125 12.297 142.676 12.7239C143.286 13.1736 143.753 13.789 144.022 14.4965V17.4903C143.905 17.7854 143.742 18.0605 143.54 18.3055C143.334 18.5587 143.095 18.7842 142.831 18.9765C142.563 19.1695 142.268 19.3226 141.955 19.4309Z"
              fill="white"/>
        <path id="Path_9" fill-rule="evenodd" clip-rule="evenodd"
              d="M6.79825 1.57979C9.5638 -0.38883 12.3293 0.215324 14.8875 2.98732V2.99163C17.4456 5.76686 20.2803 11.1827 19.308 16.9249C19.1099 18.1647 18.689 19.3587 18.0657 20.4496C16.8429 22.5078 14.8309 23.9799 12.4946 24.5258C9.90343 25.1882 7.15437 24.7969 4.85265 23.4381C4.56078 23.2533 4.2808 23.0504 4.01434 22.8307C1.97634 21.032 0.74801 18.493 0.604941 15.7833C0.492031 14.2758 0.603426 12.76 0.93551 11.285C1.23712 9.92995 1.6912 8.61316 2.28912 7.35963C3.27977 5.08512 4.83081 3.09699 6.79825 1.57979ZM4.63227 9.37994C4.94879 8.25455 6.06582 4.9764 8.70281 3.32763C8.83442 3.24683 8.91279 3.10218 8.9084 2.94816C8.90402 2.79414 8.81754 2.65415 8.68154 2.58093C8.54555 2.50771 8.3807 2.51237 8.24909 2.59317C6.69709 3.63012 5.46768 5.07992 4.70033 6.77809C4.32981 7.53975 4.02759 8.33258 3.7972 9.14732C3.76477 9.2625 3.78185 9.38594 3.84434 9.48807C3.90683 9.5902 4.00912 9.66183 4.12669 9.68579C4.34977 9.73276 4.57107 9.59889 4.63227 9.37994Z"
              fill="white"/>
        <path id="Path_10"
              d="M12.1208 26.5785C15.3928 28.0733 19.2332 27.5784 22.0163 25.3034C26.7005 21.4028 27.9979 13.4346 27.9979 13.4346C27.9979 13.4346 28.8254 9.30676 27.3022 6.92461C25.779 4.54246 22.0163 4.56292 18.5734 5.74C20.112 8.86892 20.9593 12.2905 21.0581 15.7737C21.0145 21.0267 17.2877 25.532 12.123 26.5752"
              fill="white"/>
      </g>
    </g>
  </g>
</svg>
